<?xml version="1.0" standalone="no"?>
<!DOCTYPE svg PUBLIC "-//W3C//DTD SVG 20010904//EN"
 "http://www.w3.org/TR/2001/REC-SVG-20010904/DTD/svg10.dtd">
<svg version="1.0" xmlns="http://www.w3.org/2000/svg"
 width="260.000000pt" height="260.000000pt" viewBox="0 0 260.000000 260.000000"
 preserveAspectRatio="xMidYMid meet">
<metadata>
Created by potrace 1.11, written by Peter Selinger 2001-2013
</metadata>
<g transform="translate(0.000000,260.000000) scale(0.100000,-0.100000)"
fill="#000000" stroke="none">
<path d="M1017 2373 c-2 -5 -5 -118 -5 -253 0 -135 -1 -252 -1 -260 -1 -13
-34 -15 -243 -15 l-243 0 -3 -271 -2 -271 222 1 c123 1 234 -1 247 -4 l24 -6
0 -537 0 -537 271 2 271 3 0 538 c0 531 0 537 20 538 11 0 128 1 260 2 l240 2
0 270 0 270 -250 1 c-137 1 -255 2 -260 3 -7 1 -10 93 -10 264 l0 262 -267 3
c-147 1 -269 -1 -271 -5z m323 -103 c33 -17 40 -29 40 -68 0 -44 -13 -67 -73
-129 -28 -29 -49 -54 -47 -54 3 -1 33 -2 67 -3 68 -3 79 -7 69 -31 -8 -23
-209 -18 -214 5 -1 8 23 42 53 75 70 75 83 93 89 128 8 46 -38 60 -101 31 -41
-20 -66 -7 -42 22 33 40 108 51 159 24z m-595 -664 c0 -79 3 -126 10 -127 5 0
35 -2 65 -2 62 -2 82 -11 73 -32 -4 -12 -26 -15 -98 -15 -55 0 -97 4 -100 11
-4 5 -7 73 -7 151 0 146 6 167 42 148 13 -7 16 -29 15 -134z m1160 119 c0 -15
-8 -21 -35 -25 l-35 -5 0 -102 c0 -56 3 -105 7 -109 4 -4 20 -7 35 -8 21 -1
28 -6 28 -21 0 -18 -8 -20 -94 -23 -52 -1 -98 1 -103 6 -14 14 3 44 22 39 40
-10 48 8 49 118 l1 105 -34 0 c-38 0 -54 14 -37 34 8 9 39 13 103 12 86 -1 93
-3 93 -21z m-507 -96 c-12 -9 -35 -25 -51 -34 l-30 -18 16 24 c10 13 17 26 17
30 0 3 -43 6 -96 7 -53 0 -98 3 -102 6 -3 3 43 6 103 6 102 0 107 1 93 18 -34
39 -28 42 21 10 50 -33 50 -33 29 -49z m-162 -51 c-9 -12 -16 -26 -16 -29 0
-4 38 -6 84 -5 46 1 92 -1 102 -5 11 -4 -27 -8 -83 -8 -102 -1 -117 -7 -88
-31 9 -7 14 -15 11 -17 -6 -7 -86 46 -86 57 0 7 77 60 88 60 2 0 -4 -10 -12
-22z m81 -380 c6 -7 10 -66 9 -131 -1 -66 3 -121 8 -124 5 -4 21 -6 35 -7 34
-1 41 -33 9 -41 -13 -3 -57 -5 -98 -3 -67 3 -75 5 -75 23 0 11 6 21 13 21 6 1
21 2 32 3 19 1 20 8 20 102 l0 101 -26 -17 c-22 -14 -28 -15 -40 -3 -18 18 -8
31 46 62 52 30 54 30 67 14z m-133 -550 c8 -13 32 -56 53 -97 21 -40 42 -74
47 -75 4 0 29 39 54 88 46 87 73 118 89 102 4 -4 9 -75 9 -158 1 -125 -1 -151
-14 -155 -28 -11 -38 22 -35 113 2 48 -1 84 -5 80 -4 -4 -23 -38 -42 -74 -47
-90 -62 -89 -115 6 l-40 72 -5 -97 c-5 -90 -7 -98 -25 -98 -19 0 -20 8 -23
135 -3 148 1 180 23 180 8 0 21 -10 29 -22z"/>
</g>
</svg>
